<?xml version="1.0" encoding="utf-8"?>
<!-- Generator: Adobe Illustrator 16.2.0, SVG Export Plug-In . SVG Version: 6.00 Build 0)  -->
<!DOCTYPE svg PUBLIC "-//W3C//DTD SVG 1.1//EN" "http://www.w3.org/Graphics/SVG/1.1/DTD/svg11.dtd">
<svg version="1.1" id="Layer_1" xmlns="http://www.w3.org/2000/svg" xmlns:xlink="http://www.w3.org/1999/xlink" x="0px" y="0px"
	 width="187.667px" height="52.667px" viewBox="0 0 187.667 52.667" enable-background="new 0 0 187.667 52.667"
	 xml:space="preserve">
<path fill="#FFD700" d="M141.886,26.556c0,11.533-9.351,20.884-20.884,20.884c-11.535,0-20.884-9.351-20.884-20.884
	c0-11.534,9.349-20.884,20.884-20.884C132.536,5.671,141.886,15.021,141.886,26.556"/>
<path fill="#333E48" d="M146.313,26.555c0,13.979-11.332,25.311-25.311,25.311S95.692,40.534,95.692,26.555
	s11.332-25.311,25.311-25.311S146.313,12.576,146.313,26.555 M121.002,5.766c-11.482,0-20.789,9.308-20.789,20.789
	c0,11.482,9.307,20.789,20.789,20.789c11.48,0,20.789-9.307,20.789-20.789C141.792,15.074,132.483,5.766,121.002,5.766"/>
<path fill="#333E48" d="M36.044,12.092c-2.876-4.63-8.909-6.172-14.101-6.243c-6.033,0-13.818,1.754-13.818,8.979
	c0,5.753,6.313,7.295,13.959,8.628c9.68,1.684,19.502,3.859,19.502,14.311c-0.071,11.083-10.734,14.1-19.643,14.1
	c-8.277,0-16.696-3.017-20.482-10.874l4.279-2.314c3.367,6.313,10.242,8.487,16.204,8.487c6.033,0,14.662-1.613,14.662-9.47
	c0.068-6.663-7.367-8.347-15.013-9.68c-9.259-1.613-18.379-3.648-18.379-13.188C3.074,4.516,13.597,1.22,21.874,1.22
	c6.734,0,13.96,1.824,18.309,8.558L36.044,12.092z"/>
<path fill="#333E48" d="M56.592,34.75v16.344h-4.909V1.991h21.956c21.955,0,21.955,32.688,0,32.759H56.592z M56.592,30.12h17.047
	C89,30.12,89,6.621,73.639,6.621H56.592V30.12z"/>
<polygon fill="#333E48" points="163.778,6.621 145.351,6.621 145.351,1.991 187.114,1.991 187.114,6.621 168.688,6.621 
	168.688,51.095 163.778,51.095 "/>
</svg>
